<?xml version="1.0" encoding="UTF-8" standalone="no"?>
<svg
   id="Layer_1"
   data-name="Layer 1"
   viewBox="0 0 511.99998 512"
   version="1.1"
   width="512"
   height="512"
   sodipodi:docname="pwa-icon.svg"
   inkscape:version="1.4 (e7c3feb100, 2024-10-09)"
   xmlns:inkscape="http://www.inkscape.org/namespaces/inkscape"
   xmlns:sodipodi="http://sodipodi.sourceforge.net/DTD/sodipodi-0.dtd"
   xmlns="http://www.w3.org/2000/svg"
   xmlns:svg="http://www.w3.org/2000/svg"
   xmlns:rdf="http://www.w3.org/1999/02/22-rdf-syntax-ns#"
   xmlns:cc="http://creativecommons.org/ns#"
   xmlns:dc="http://purl.org/dc/elements/1.1/">
  <sodipodi:namedview
     id="namedview1"
     pagecolor="#ffffff"
     bordercolor="#000000"
     borderopacity="0.25"
     inkscape:showpageshadow="2"
     inkscape:pageopacity="0.0"
     inkscape:pagecheckerboard="0"
     inkscape:deskcolor="#d1d1d1"
     inkscape:zoom="0.5703125"
     inkscape:cx="-70.136986"
     inkscape:cy="271.78082"
     inkscape:window-width="1536"
     inkscape:window-height="792"
     inkscape:window-x="0"
     inkscape:window-y="0"
     inkscape:window-maximized="1"
     inkscape:current-layer="Layer_1" />
  <defs
     id="defs4">
    <style
       id="style2">.cls-1{fill:#9c27b0;}.cls-2{fill:#7b1fa2;}.cls-3{fill:#fff;}</style>
  </defs>
  <title
     id="title6">PWA_eesign_solution</title>
  <g
     id="g1"
     transform="translate(44.393162,-47.780822)">
    <polygon
       class="cls-1"
       points="91.04,18.04 83.92,76.87 46.45,98.03 8.36,76.97 1.86,18.04 46.45,1.83 "
       id="polygon8"
       transform="matrix(4.1047636,0,0,4.1047636,20.920045,98.542644)" />
    <polyline
       class="cls-2"
       points="46.45 1.83 91.04 18.04 83.92 76.87 46.45 98.03"
       id="polyline10"
       transform="matrix(4.1047636,0,0,4.1047636,20.920045,98.542644)" />
    <path
       d="M 211.62736,509.019 48.627199,418.7142 20.920045,167.83105 211.58631,98.542644 402.29363,167.8721 397.45,207.89354 a 7.0601934,7.0601934 0 0 1 -13.99723,-1.68295 l 3.48904,-28.73334 -175.3555,-63.91117 -175.396544,63.74697 25.777915,232.78115 149.577579,82.75204 147.23788,-83.16251 18.59457,-153.55921 a 7.0601934,7.0601934 0 0 1 13.99725,1.68295 l -19.41554,160.66045 z"
       id="path12"
       style="stroke-width:4.10476" />
    <path
       class="cls-3"
       d="m 255.63042,261.58386 h 22.24782 c 0,0.28733 0,0.57466 -0.28733,0.82095 l -32.34553,80.20708 c -0.36943,0.90304 -0.65676,1.84714 -0.98515,2.79124 h -22.20677 a 9.9745759,9.9745759 0 0 0 -0.24629,-1.27248 l -13.42257,-42.93583 -1.39562,-4.47419 c -0.24629,0.65676 -0.41048,0.98514 -0.53362,1.31352 l -5.37724,16.41906 -10.17982,30.94992 h -22.20677 a 13.094196,13.094196 0 0 0 -0.57467,-1.27248 q -5.04886,-8.7021 -10.09772,-17.36315 a 2.2986676,2.2986676 0 0 1 -0.20524,-2.05238 q 4.35106,-13.25839 8.62001,-26.55782 l 2.25762,-6.69077 12.31429,24.62858 c 0.24628,-0.65676 0.41048,-1.06724 0.57466,-1.47771 l 11.82173,-36.3682 q 2.6681,-8.20953 5.29514,-16.41906 h 17.11686 v 0.32838 l 15.96753,52.74621 c 0,0.32838 0.2463,0.61572 0.45153,1.14934 l 0.57468,-1.23144 16.41904,-38.17429 c 2.25763,-5.17201 4.31001,-10.13877 6.40343,-15.06448 z"
       id="path14"
       style="stroke-width:4.10476" />
    <path
       class="cls-3"
       d="m 121.52779,345.40313 h -21.13952 v -83.81927 h 37.35335 c 1.97028,0.28733 4.10476,0.53361 5.91085,0.90304 a 24.628581,24.628581 0 0 1 15.84439,10.17981 1.7650483,1.7650483 0 0 1 0.24628,1.72401 q -6.48552,19.94915 -12.93,39.8983 a 1.4366672,1.4366672 0 0 1 -1.27247,1.14933 67.482314,67.482314 0 0 1 -7.01915,0.98514 c -5.21305,0 -10.46715,0 -15.6802,0 -0.98514,0 -1.35457,0.20524 -1.31353,1.27248 0,2.38076 0,4.76153 0,7.10124 q 0,10.38506 0,20.60592 z m 0,-67.52337 a 4.1047636,4.1047636 0 0 0 0,0.65676 c 0,7.01915 0,13.99725 0,21.0164 0,0.69781 0.28734,0.90304 0.9441,0.862 3.36591,0 6.73182,0 10.09772,0 a 9.482004,9.482004 0 0 0 9.93353,-7.8401 17.773627,17.773627 0 0 0 0,-5.70562 9.235718,9.235718 0 0 0 -7.79906,-8.20953 14.24353,14.24353 0 0 0 -2.87333,-0.36943 z"
       id="path16"
       style="stroke-width:4.10476" />
    <path
       class="cls-3"
       d="m 299.42826,345.40313 a 7.1833363,7.1833363 0 0 0 0,-0.9441 c -1.55982,-4.3921 -3.16068,-8.78419 -4.67944,-13.17629 a 1.2724767,1.2724767 0 0 0 -1.47771,-0.98514 h -28.73335 c 0,-0.49258 0.2463,-0.82096 0.36943,-1.14934 1.84714,-4.67943 3.69428,-9.35886 5.50038,-14.03829 a 1.3135243,1.3135243 0 0 1 1.47772,-0.98514 h 17.48629 l -0.45153,-1.27248 q -4.10476,-11.16495 -8.00428,-22.37096 a 2.7501916,2.7501916 0 0 1 0,-2.09343 q 5.0899,-12.72477 10.09772,-25.49058 l 0.45152,-1.10829 c 0.24628,0.61572 0.45152,0.98515 0.61572,1.43667 l 30.45734,80.98699 a 9.6872422,9.6872422 0 0 0 0.49257,0.94409 4.1047636,4.1047636 0 0 1 -0.90304,0.20524 z"
       id="path18"
       style="stroke-width:4.10476" />
  </g>
  <metadata
     id="metadata23">
    <rdf:RDF>
      <cc:Work
         rdf:about="">
        <dc:title>PWA_eesign_solution</dc:title>
      </cc:Work>
    </rdf:RDF>
  </metadata>
</svg>
